<svg width="137" height="23" viewBox="0 0 137 23" fill="none" xmlns="http://www.w3.org/2000/svg">
<path d="M15.488 19.44C15.76 19.872 15.896 20.28 15.896 20.664C15.896 21.192 15.68 21.624 15.248 21.96C14.816 22.312 14.32 22.488 13.76 22.488C13.376 22.488 13.016 22.392 12.68 22.2C12.344 22.024 12.064 21.76 11.84 21.408L10.4 18.984C10.24 18.712 10.024 18.512 9.752 18.384C9.48 18.272 9.088 18.216 8.576 18.216C6.848 18.216 5.344 17.864 4.064 17.16C2.8 16.44 1.824 15.432 1.136 14.136C0.448 12.824 0.104 11.288 0.104 9.528C0.104 7.768 0.448 6.24 1.136 4.944C1.824 3.632 2.8 2.624 4.064 1.92C5.344 1.216 6.848 0.863999 8.576 0.863999C10.304 0.863999 11.8 1.216 13.064 1.92C14.344 2.624 15.32 3.632 15.992 4.944C16.68 6.24 17.024 7.768 17.024 9.528C17.024 11.272 16.68 12.8 15.992 14.112C15.32 15.424 14.344 16.432 13.064 17.136C13.912 17.392 14.552 17.88 14.984 18.6L15.488 19.44ZM8.576 14.832C9.856 14.832 10.856 14.384 11.576 13.488C12.296 12.576 12.656 11.256 12.656 9.528C12.656 7.8 12.288 6.488 11.552 5.592C10.832 4.696 9.84 4.248 8.576 4.248C7.296 4.248 6.296 4.696 5.576 5.592C4.856 6.472 4.496 7.784 4.496 9.528C4.496 11.272 4.856 12.592 5.576 13.488C6.296 14.384 7.296 14.832 8.576 14.832ZM27.0296 18.216C24.5816 18.216 22.7176 17.592 21.4376 16.344C20.1736 15.096 19.5416 13.272 19.5416 10.872V3.12C19.5416 2.464 19.7336 1.944 20.1176 1.56C20.5176 1.16 21.0456 0.959999 21.7016 0.959999C22.3576 0.959999 22.8776 1.16 23.2616 1.56C23.6616 1.944 23.8616 2.464 23.8616 3.12V11.04C23.8616 12.256 24.1336 13.192 24.6776 13.848C25.2216 14.504 26.0056 14.832 27.0296 14.832C28.0536 14.832 28.8376 14.504 29.3816 13.848C29.9256 13.192 30.1976 12.256 30.1976 11.04V3.12C30.1976 2.464 30.3896 1.944 30.7736 1.56C31.1736 1.16 31.7016 0.959999 32.3576 0.959999C33.0136 0.959999 33.5416 1.16 33.9416 1.56C34.3416 1.944 34.5416 2.464 34.5416 3.12V10.872C34.5416 13.256 33.8936 15.08 32.5976 16.344C31.3176 17.592 29.4616 18.216 27.0296 18.216ZM39.7044 18.144C39.0324 18.144 38.4964 17.952 38.0964 17.568C37.7124 17.168 37.5204 16.632 37.5204 15.96V3.12C37.5204 2.464 37.7124 1.944 38.0964 1.56C38.4964 1.16 39.0324 0.959999 39.7044 0.959999C40.3924 0.959999 40.9364 1.16 41.3364 1.56C41.7364 1.944 41.9364 2.464 41.9364 3.12V15.96C41.9364 16.632 41.7364 17.168 41.3364 17.568C40.9364 17.952 40.3924 18.144 39.7044 18.144ZM55.7969 14.544C56.5009 14.544 57.0209 14.68 57.3569 14.952C57.7089 15.224 57.8849 15.656 57.8849 16.248C57.8849 16.856 57.7169 17.304 57.3809 17.592C57.0449 17.864 56.5169 18 55.7969 18H46.1969C45.6049 18 45.1329 17.824 44.7809 17.472C44.4449 17.12 44.2769 16.68 44.2769 16.152C44.2769 15.624 44.4609 15.104 44.8289 14.592L52.2209 4.536H46.4129C45.6929 4.536 45.1569 4.4 44.8049 4.128C44.4689 3.84 44.3009 3.408 44.3009 2.832C44.3009 2.224 44.4689 1.784 44.8049 1.512C45.1569 1.224 45.6929 1.08 46.4129 1.08H55.6289C56.2049 1.08 56.6609 1.256 56.9969 1.608C57.3489 1.944 57.5249 2.376 57.5249 2.904C57.5249 3.448 57.3409 3.976 56.9729 4.488L49.5809 14.544H55.7969ZM81.6286 19.44C81.9006 19.872 82.0366 20.28 82.0366 20.664C82.0366 21.192 81.8206 21.624 81.3886 21.96C80.9566 22.312 80.4606 22.488 79.9006 22.488C79.5166 22.488 79.1566 22.392 78.8206 22.2C78.4846 22.024 78.2046 21.76 77.9806 21.408L76.5406 18.984C76.3806 18.712 76.1646 18.512 75.8926 18.384C75.6206 18.272 75.2286 18.216 74.7166 18.216C72.9886 18.216 71.4846 17.864 70.2046 17.16C68.9406 16.44 67.9646 15.432 67.2766 14.136C66.5886 12.824 66.2446 11.288 66.2446 9.528C66.2446 7.768 66.5886 6.24 67.2766 4.944C67.9646 3.632 68.9406 2.624 70.2046 1.92C71.4846 1.216 72.9886 0.863999 74.7166 0.863999C76.4446 0.863999 77.9406 1.216 79.2046 1.92C80.4846 2.624 81.4606 3.632 82.1326 4.944C82.8206 6.24 83.1646 7.768 83.1646 9.528C83.1646 11.272 82.8206 12.8 82.1326 14.112C81.4606 15.424 80.4846 16.432 79.2046 17.136C80.0526 17.392 80.6926 17.88 81.1246 18.6L81.6286 19.44ZM74.7166 14.832C75.9966 14.832 76.9966 14.384 77.7166 13.488C78.4366 12.576 78.7966 11.256 78.7966 9.528C78.7966 7.8 78.4286 6.488 77.6926 5.592C76.9726 4.696 75.9806 4.248 74.7166 4.248C73.4366 4.248 72.4366 4.696 71.7166 5.592C70.9966 6.472 70.6366 7.784 70.6366 9.528C70.6366 11.272 70.9966 12.592 71.7166 13.488C72.4366 14.384 73.4366 14.832 74.7166 14.832ZM101.463 15.288C101.607 15.592 101.679 15.888 101.679 16.176C101.679 16.704 101.463 17.152 101.031 17.52C100.615 17.888 100.135 18.072 99.5906 18.072C99.2226 18.072 98.8866 17.976 98.5826 17.784C98.2786 17.592 98.0386 17.304 97.8626 16.92L96.7826 14.496H89.0066L87.9026 16.92C87.7266 17.304 87.4786 17.592 87.1586 17.784C86.8546 17.976 86.5186 18.072 86.1506 18.072C85.6066 18.072 85.1106 17.888 84.6626 17.52C84.2306 17.152 84.0146 16.704 84.0146 16.176C84.0146 15.888 84.0866 15.592 84.2306 15.288L90.5666 2.28C90.7746 1.848 91.0786 1.52 91.4786 1.296C91.8946 1.056 92.3506 0.935999 92.8466 0.935999C93.3266 0.935999 93.7746 1.056 94.1906 1.296C94.6066 1.52 94.9186 1.848 95.1266 2.28L101.463 15.288ZM90.4946 11.184H95.2946L92.8946 5.832L90.4946 11.184ZM118.544 0.959999C119.152 0.959999 119.648 1.16 120.032 1.56C120.416 1.96 120.608 2.48 120.608 3.12V16.176C120.608 16.784 120.432 17.264 120.08 17.616C119.728 17.968 119.264 18.144 118.688 18.144C118.128 18.144 117.664 17.968 117.296 17.616C116.944 17.264 116.768 16.784 116.768 16.176V9.12L114.032 14.16C113.76 14.672 113.472 15.04 113.168 15.264C112.864 15.472 112.504 15.576 112.088 15.576C111.672 15.576 111.312 15.472 111.008 15.264C110.704 15.04 110.416 14.672 110.144 14.16L107.432 9.264V16.176C107.432 16.768 107.248 17.248 106.88 17.616C106.528 17.968 106.064 18.144 105.488 18.144C104.928 18.144 104.464 17.968 104.096 17.616C103.744 17.264 103.568 16.784 103.568 16.176V3.12C103.568 2.48 103.76 1.96 104.144 1.56C104.544 1.16 105.048 0.959999 105.656 0.959999C106.088 0.959999 106.48 1.088 106.832 1.344C107.184 1.584 107.48 1.936 107.72 2.4L112.136 10.704L116.528 2.4C117.024 1.44 117.696 0.959999 118.544 0.959999ZM125.764 18C125.108 18 124.604 17.824 124.252 17.472C123.9 17.12 123.724 16.616 123.724 15.96V3.12C123.724 2.464 123.9 1.96 124.252 1.608C124.604 1.256 125.108 1.08 125.764 1.08H134.068C134.756 1.08 135.276 1.224 135.628 1.512C135.98 1.8 136.156 2.216 136.156 2.76C136.156 3.912 135.46 4.488 134.068 4.488H128.02V7.704H133.588C134.98 7.704 135.676 8.272 135.676 9.408C135.676 9.952 135.5 10.368 135.148 10.656C134.796 10.944 134.276 11.088 133.588 11.088H128.02V14.592H134.068C135.46 14.592 136.156 15.168 136.156 16.32C136.156 16.864 135.98 17.28 135.628 17.568C135.276 17.856 134.756 18 134.068 18H125.764Z" fill="black"/>
</svg>
