<svg xmlns="http://www.w3.org/2000/svg" viewBox="0 0 1440 320"><path fill="#7390aa" fill-opacity="1" d="M0,224L24,213.3C48,203,96,181,144,176C192,171,240,181,288,208C336,235,384,277,432,250.7C480,224,528,128,576,106.7C624,85,672,139,720,181.3C768,224,816,256,864,266.7C912,277,960,267,1008,229.3C1056,192,1104,128,1152,117.3C1200,107,1248,149,1296,170.7C1344,192,1392,192,1416,192L1440,192L1440,0L1416,0C1392,0,1344,0,1296,0C1248,0,1200,0,1152,0C1104,0,1056,0,1008,0C960,0,912,0,864,0C816,0,768,0,720,0C672,0,624,0,576,0C528,0,480,0,432,0C384,0,336,0,288,0C240,0,192,0,144,0C96,0,48,0,24,0L0,0Z"></path></svg> 
